{
  "accessors": [
    {
      "bufferView": 2,
      "componentType": 5126,
      "count": 33222,
      "max": [
        0.064107000827789307,
        0.055424001067876816,
        0.13650399446487427
      ],
      "min": [
        -0.059571001678705215,
        -0.068039000034332275,
        -0.055369999259710312
      ],
      "type": "VEC3"
    },
    {
      "bufferView": 2,
      "byteOffset": 398664,
      "componentType": 5126,
      "count": 33222,
      "max": [
        0.99964243173599243,
        0.99994230270385742,
        0.9999232292175293
      ],
      "min": [
        -0.99994146823883057,
        -0.99997115135192871,
        -0.99999916553497314
      ],
      "type": "VEC3"
    },
    {
      "bufferView": 1,
      "componentType": 5126,
      "count": 33222,
      "max": [
        1,
        0.98186898231506348
      ],
      "min": [
        5.7000001106644049e-05,
        0
      ],
      "type": "VEC2"
    },
    {
      "bufferView": 0,
      "componentType": 5125,
      "count": 192000,
      "max": [
        33221
      ],
      "min": [
        0
      ],
      "type": "SCALAR"
    }
  ],
  "asset": {
    "extras": {
      "author": "Minneapolis Institute of Art (https://sketchfab.com/artsmia)",
      "license": "CC0-1.0 (http://creativecommons.org/publicdomain/zero/1.0/)",
      "source": "https://sketchfab.com/3d-models/kalong-vase-14th-16th-c-ce-0797e6f0be7b4045ade19cd5d8db1e4a",
      "title": "Kalong Vase, 14th-16th C CE"
    },
    "generator": "Sketchfab-7.80.0",
    "version": "2.0"
  },
  "bufferViews": [
    {
      "buffer": 0,
      "byteLength": 768000,
      "byteOffset": 0,
      "name": "floatBufferViews",
      "target": 34963
    },
    {
      "buffer": 0,
      "byteLength": 265776,
      "byteOffset": 768000,
      "byteStride": 8,
      "name": "floatBufferViews",
      "target": 34962
    },
    {
      "buffer": 0,
      "byteLength": 797328,
      "byteOffset": 1033776,
      "byteStride": 12,
      "name": "floatBufferViews",
      "target": 34962
    }
  ],
  "buffers": [
    {
      "byteLength": 1831104,
      "uri": "scene.bin"
    }
  ],
  "images": [
    {
      "uri": "textures/190521_mia337_127611_100_64Kmesh_OBJ_baseColor.jpeg"
    },
    {
      "uri": "textures/190521_mia337_127611_100_64Kmesh_OBJ_metallicRoughness.png"
    }
  ],
  "materials": [
    {
      "doubleSided": true,
      "emissiveFactor": [
        0,
        0,
        0
      ],
      "name": "190521_mia337_127611_100_64Kmesh_OBJ",
      "pbrMetallicRoughness": {
        "baseColorFactor": [
          1,
          1,
          1,
          1
        ],
        "baseColorTexture": {
          "index": 0,
          "texCoord": 0
        },
        "metallicFactor": 0.2253623630689538,
        "metallicRoughnessTexture": {
          "index": 1,
          "texCoord": 0
        },
        "roughnessFactor": 0.089242414994673336
      }
    }
  ],
  "meshes": [
    {
      "primitives": [
        {
          "attributes": {
            "NORMAL": 1,
            "POSITION": 0,
            "TEXCOORD_0": 2
          },
          "indices": 3,
          "material": 0,
          "mode": 4
        }
      ]
    }
  ],
  "nodes": [
    {
      "children": [
        1
      ],
      "name": "RootNode (gltf orientation matrix)",
      "rotation": [
        -0.70710678118654746,
        -0,
        -0,
        0.70710678118654757
      ]
    },
    {
      "children": [
        2
      ],
      "matrix": [
        1,
        0,
        0,
        0,
        0,
        0.99862295389175415,
        0.052461158484220505,
        0,
        0,
        -0.052461158484220505,
        0.99862295389175415,
        0,
        0,
        0.0021195076406002045,
        0.00038675818359479308,
        1
      ],
      "name": "RootNode (model correction matrix)"
    },
    {
      "children": [
        3
      ],
      "name": "190521_mia337_127611_100_64Kmesh_Blender_OBJ.obj.cleaner.materialmerger.gles"
    },
    {
      "mesh": 0,
      "name": ""
    }
  ],
  "samplers": [
    {
      "magFilter": 9729,
      "minFilter": 9987,
      "wrapS": 10497,
      "wrapT": 10497
    }
  ],
  "scene": 0,
  "scenes": [
    {
      "name": "OSG_Scene",
      "nodes": [
        0
      ]
    }
  ],
  "textures": [
    {
      "sampler": 0,
      "source": 0
    },
    {
      "sampler": 0,
      "source": 1
    }
  ]
}

