{
  "accessors": [
    {
      "bufferView": 1,
      "componentType": 5126,
      "count": 65532,
      "max": [
        2.4940793514251709,
        7.3167386054992676,
        11.80184268951416
      ],
      "min": [
        -2.5974092483520508,
        -6.0033750534057617,
        -0.31607893109321594
      ],
      "type": "VEC3"
    },
    {
      "bufferView": 1,
      "byteOffset": 786384,
      "componentType": 5126,
      "count": 65532,
      "max": [
        0.99999904632568359,
        0.99997365474700928,
        0.99997282028198242
      ],
      "min": [
        -0.99999845027923584,
        -0.99997782707214355,
        -0.99979668855667114
      ],
      "type": "VEC3"
    },
    {
      "bufferView": 2,
      "componentType": 5126,
      "count": 65532,
      "max": [
        0.94509804248809814,
        0.94509804248809814,
        0.94509804248809814,
        1
      ],
      "min": [
        0,
        0,
        0,
        1
      ],
      "type": "VEC4"
    },
    {
      "bufferView": 0,
      "componentType": 5125,
      "count": 297372,
      "max": [
        65531
      ],
      "min": [
        0
      ],
      "type": "SCALAR"
    },
    {
      "bufferView": 1,
      "byteOffset": 1572768,
      "componentType": 5126,
      "count": 65532,
      "max": [
        2.5596144199371338,
        9.7380905151367188,
        11.785281181335449
      ],
      "min": [
        -2.5987198352813721,
        -5.8632078170776367,
        -0.71507155895233154
      ],
      "type": "VEC3"
    },
    {
      "bufferView": 1,
      "byteOffset": 2359152,
      "componentType": 5126,
      "count": 65532,
      "max": [
        0.99999827146530151,
        0.99999916553497314,
        0.99993675947189331
      ],
      "min": [
        -0.99999308586120605,
        -0.99997782707214355,
        -0.99997824430465698
      ],
      "type": "VEC3"
    },
    {
      "bufferView": 2,
      "byteOffset": 1048512,
      "componentType": 5126,
      "count": 65532,
      "max": [
        0.87058824300765991,
        0.729411780834198,
        0.61960786581039429,
        1
      ],
      "min": [
        0.043137256056070328,
        0.035294119268655777,
        0.027450980618596077,
        1
      ],
      "type": "VEC4"
    },
    {
      "bufferView": 0,
      "byteOffset": 1189488,
      "componentType": 5125,
      "count": 307239,
      "max": [
        65531
      ],
      "min": [
        0
      ],
      "type": "SCALAR"
    },
    {
      "bufferView": 1,
      "byteOffset": 3145536,
      "componentType": 5126,
      "count": 65532,
      "max": [
        2.5693037509918213,
        9.2111902236938477,
        11.7684326171875
      ],
      "min": [
        -2.5904898643493652,
        -5.9069914817810059,
        -0.72806251049041748
      ],
      "type": "VEC3"
    },
    {
      "bufferView": 1,
      "byteOffset": 3931920,
      "componentType": 5126,
      "count": 65532,
      "max": [
        0.99998676776885986,
        0.99998265504837036,
        0.99995094537734985
      ],
      "min": [
        -0.99999368190765381,
        -0.99971210956573486,
        -0.99990642070770264
      ],
      "type": "VEC3"
    },
    {
      "bufferView": 2,
      "byteOffset": 2097024,
      "componentType": 5126,
      "count": 65532,
      "max": [
        0.87058824300765991,
        0.729411780834198,
        0.61960786581039429,
        1
      ],
      "min": [
        0,
        0,
        0,
        1
      ],
      "type": "VEC4"
    },
    {
      "bufferView": 0,
      "byteOffset": 2418444,
      "componentType": 5125,
      "count": 302943,
      "max": [
        65531
      ],
      "min": [
        0
      ],
      "type": "SCALAR"
    },
    {
      "bufferView": 1,
      "byteOffset": 4718304,
      "componentType": 5126,
      "count": 65532,
      "max": [
        2.5646965503692627,
        8.965479850769043,
        11.834722518920898
      ],
      "min": [
        -2.5704770088195801,
        -5.9244399070739746,
        -0.56745219230651855
      ],
      "type": "VEC3"
    },
    {
      "bufferView": 1,
      "byteOffset": 5504688,
      "componentType": 5126,
      "count": 65532,
      "max": [
        0.99999654293060303,
        0.99997365474700928,
        0.99977314472198486
      ],
      "min": [
        -0.99998563528060913,
        -0.99995291233062744,
        -0.99990838766098022
      ],
      "type": "VEC3"
    },
    {
      "bufferView": 2,
      "byteOffset": 3145536,
      "componentType": 5126,
      "count": 65532,
      "max": [
        0.87058824300765991,
        0.729411780834198,
        0.61960786581039429,
        1
      ],
      "min": [
        0.027450980618596077,
        0.019607843831181526,
        0.015686275437474251,
        1
      ],
      "type": "VEC4"
    },
    {
      "bufferView": 0,
      "byteOffset": 3630216,
      "componentType": 5125,
      "count": 299502,
      "max": [
        65531
      ],
      "min": [
        0
      ],
      "type": "SCALAR"
    },
    {
      "bufferView": 1,
      "byteOffset": 6291072,
      "componentType": 5126,
      "count": 65532,
      "max": [
        2.5673320293426514,
        9.7397756576538086,
        11.834982872009277
      ],
      "min": [
        -2.5830733776092529,
        -5.9491162300109863,
        -0.72704160213470459
      ],
      "type": "VEC3"
    },
    {
      "bufferView": 1,
      "byteOffset": 7077456,
      "componentType": 5126,
      "count": 65532,
      "max": [
        0.99996495246887207,
        0.99999052286148071,
        0.99997282028198242
      ],
      "min": [
        -0.99998050928115845,
        -0.99997639656066895,
        -0.99959850311279297
      ],
      "type": "VEC3"
    },
    {
      "bufferView": 2,
      "byteOffset": 4194048,
      "componentType": 5126,
      "count": 65532,
      "max": [
        0.87058824300765991,
        0.729411780834198,
        0.61960786581039429,
        1
      ],
      "min": [
        0.011764706112444401,
        0.0078431377187371254,
        0.0039215688593685627,
        1
      ],
      "type": "VEC4"
    },
    {
      "bufferView": 0,
      "byteOffset": 4828224,
      "componentType": 5125,
      "count": 294669,
      "max": [
        65531
      ],
      "min": [
        0
      ],
      "type": "SCALAR"
    },
    {
      "bufferView": 1,
      "byteOffset": 7863840,
      "componentType": 5126,
      "count": 65532,
      "max": [
        2.5680985450744629,
        9.5994338989257812,
        11.815634727478027
      ],
      "min": [
        -2.596796989440918,
        -5.9592323303222656,
        -0.69562602043151855
      ],
      "type": "VEC3"
    },
    {
      "bufferView": 1,
      "byteOffset": 8650224,
      "componentType": 5126,
      "count": 65532,
      "max": [
        0.99999946355819702,
        0.99997180700302124,
        0.99995541572570801
      ],
      "min": [
        -0.99999833106994629,
        -0.99992549419403076,
        -0.99970632791519165
      ],
      "type": "VEC3"
    },
    {
      "bufferView": 2,
      "byteOffset": 5242560,
      "componentType": 5126,
      "count": 65532,
      "max": [
        0.91764706373214722,
        0.91764706373214722,
        0.91764706373214722,
        1
      ],
      "min": [
        0,
        0,
        0,
        1
      ],
      "type": "VEC4"
    },
    {
      "bufferView": 0,
      "byteOffset": 6006900,
      "componentType": 5125,
      "count": 250521,
      "max": [
        65531
      ],
      "min": [
        0
      ],
      "type": "SCALAR"
    },
    {
      "bufferView": 1,
      "byteOffset": 9436608,
      "componentType": 5126,
      "count": 65532,
      "max": [
        2.5665955543518066,
        9.7252340316772461,
        11.798632621765137
      ],
      "min": [
        -2.5974092483520508,
        -5.9884033203125,
        -0.72806251049041748
      ],
      "type": "VEC3"
    },
    {
      "bufferView": 1,
      "byteOffset": 10222992,
      "componentType": 5126,
      "count": 65532,
      "max": [
        0.99995934963226318,
        0.99998611211776733,
        0.99988013505935669
      ],
      "min": [
        -0.99998718500137329,
        -0.99991518259048462,
        -0.99997824430465698
      ],
      "type": "VEC3"
    },
    {
      "bufferView": 2,
      "byteOffset": 6291072,
      "componentType": 5126,
      "count": 65532,
      "max": [
        0.87058824300765991,
        0.729411780834198,
        0.61960786581039429,
        1
      ],
      "min": [
        0,
        0,
        0,
        1
      ],
      "type": "VEC4"
    },
    {
      "bufferView": 0,
      "byteOffset": 7008984,
      "componentType": 5125,
      "count": 120687,
      "max": [
        65531
      ],
      "min": [
        0
      ],
      "type": "SCALAR"
    },
    {
      "bufferView": 1,
      "byteOffset": 11009376,
      "componentType": 5126,
      "count": 65532,
      "max": [
        2.5999231338500977,
        9.712010383605957,
        11.834607124328613
      ],
      "min": [
        -2.6370627880096436,
        -5.8639531135559082,
        -0.73142647743225098
      ],
      "type": "VEC3"
    },
    {
      "bufferView": 1,
      "byteOffset": 11795760,
      "componentType": 5126,
      "count": 65532,
      "max": [
        0.99999648332595825,
        0.99998509883880615,
        0.99997854232788086
      ],
      "min": [
        -0.99999696016311646,
        -0.99996685981750488,
        -0.875313401222229
      ],
      "type": "VEC3"
    },
    {
      "bufferView": 2,
      "byteOffset": 7339584,
      "componentType": 5126,
      "count": 65532,
      "max": [
        0.86666667461395264,
        0.72549021244049072,
        0.61960786581039429,
        1
      ],
      "min": [
        0.015686275437474251,
        0.011764706112444401,
        0.0078431377187371254,
        1
      ],
      "type": "VEC4"
    },
    {
      "bufferView": 0,
      "byteOffset": 7491732,
      "componentType": 5125,
      "count": 139944,
      "max": [
        65531
      ],
      "min": [
        0
      ],
      "type": "SCALAR"
    },
    {
      "bufferView": 1,
      "byteOffset": 12582144,
      "componentType": 5126,
      "count": 65532,
      "max": [
        2.6021933555603027,
        9.6817083358764648,
        11.686302185058594
      ],
      "min": [
        -2.6244304180145264,
        -5.4026994705200195,
        -0.72579061985015869
      ],
      "type": "VEC3"
    },
    {
      "bufferView": 1,
      "byteOffset": 13368528,
      "componentType": 5126,
      "count": 65532,
      "max": [
        0.99998831748962402,
        0.99996370077133179,
        0.99993151426315308
      ],
      "min": [
        -0.99997752904891968,
        -0.99999594688415527,
        -0.93113058805465698
      ],
      "type": "VEC3"
    },
    {
      "bufferView": 2,
      "byteOffset": 8388096,
      "componentType": 5126,
      "count": 65532,
      "max": [
        0.86666667461395264,
        0.72549021244049072,
        0.61960786581039429,
        1
      ],
      "min": [
        0.015686275437474251,
        0.011764706112444401,
        0.0078431377187371254,
        1
      ],
      "type": "VEC4"
    },
    {
      "bufferView": 0,
      "byteOffset": 8051508,
      "componentType": 5125,
      "count": 139794,
      "max": [
        65531
      ],
      "min": [
        0
      ],
      "type": "SCALAR"
    },
    {
      "bufferView": 1,
      "byteOffset": 14154912,
      "componentType": 5126,
      "count": 65532,
      "max": [
        2.6036238670349121,
        9.5209131240844727,
        11.769719123840332
      ],
      "min": [
        -2.6251969337463379,
        -5.8398599624633789,
        -0.74850153923034668
      ],
      "type": "VEC3"
    },
    {
      "bufferView": 1,
      "byteOffset": 14941296,
      "componentType": 5126,
      "count": 65532,
      "max": [
        0.9999614953994751,
        0.9999997615814209,
        0.99991559982299805
      ],
      "min": [
        -0.99995684623718262,
        -0.99999922513961792,
        -0.88842678070068359
      ],
      "type": "VEC3"
    },
    {
      "bufferView": 2,
      "byteOffset": 9436608,
      "componentType": 5126,
      "count": 65532,
      "max": [
        0.86666667461395264,
        0.72549021244049072,
        0.61960786581039429,
        1
      ],
      "min": [
        0.015686275437474251,
        0.011764706112444401,
        0.0078431377187371254,
        1
      ],
      "type": "VEC4"
    },
    {
      "bufferView": 0,
      "byteOffset": 8610684,
      "componentType": 5125,
      "count": 139734,
      "max": [
        65531
      ],
      "min": [
        0
      ],
      "type": "SCALAR"
    },
    {
      "bufferView": 1,
      "byteOffset": 15727680,
      "componentType": 5126,
      "count": 65532,
      "max": [
        2.5901634693145752,
        9.5433835983276367,
        11.771685600280762
      ],
      "min": [
        -2.6215043067932129,
        -5.569765567779541,
        -0.72516298294067383
      ],
      "type": "VEC3"
    },
    {
      "bufferView": 1,
      "byteOffset": 16514064,
      "componentType": 5126,
      "count": 65532,
      "max": [
        0.99999886751174927,
        0.9999961256980896,
        0.99995201826095581
      ],
      "min": [
        -0.99993044137954712,
        -0.99999892711639404,
        -0.83212316036224365
      ],
      "type": "VEC3"
    },
    {
      "bufferView": 2,
      "byteOffset": 10485120,
      "componentType": 5126,
      "count": 65532,
      "max": [
        0.86666667461395264,
        0.72156864404678345,
        0.61960786581039429,
        1
      ],
      "min": [
        0.015686275437474251,
        0.011764706112444401,
        0.0078431377187371254,
        1
      ],
      "type": "VEC4"
    },
    {
      "bufferView": 0,
      "byteOffset": 9169620,
      "componentType": 5125,
      "count": 139620,
      "max": [
        65531
      ],
      "min": [
        0
      ],
      "type": "SCALAR"
    },
    {
      "bufferView": 1,
      "byteOffset": 17300448,
      "componentType": 5126,
      "count": 45770,
      "max": [
        2.5917248725891113,
        9.7351322174072266,
        11.768644332885742
      ],
      "min": [
        -2.6137130260467529,
        -5.3871684074401855,
        -0.70316052436828613
      ],
      "type": "VEC3"
    },
    {
      "bufferView": 1,
      "byteOffset": 17849688,
      "componentType": 5126,
      "count": 45770,
      "max": [
        0.99980348348617554,
        0.99999332427978516,
        0.99997144937515259
      ],
      "min": [
        -0.99987286329269409,
        -0.99999880790710449,
        -0.82819640636444092
      ],
      "type": "VEC3"
    },
    {
      "bufferView": 2,
      "byteOffset": 11533632,
      "componentType": 5126,
      "count": 45770,
      "max": [
        0.86666667461395264,
        0.72156864404678345,
        0.61960786581039429,
        1
      ],
      "min": [
        0.015686275437474251,
        0.011764706112444401,
        0.0078431377187371254,
        1
      ],
      "type": "VEC4"
    },
    {
      "bufferView": 0,
      "byteOffset": 9728100,
      "componentType": 5125,
      "count": 97368,
      "max": [
        45769
      ],
      "min": [
        0
      ],
      "type": "SCALAR"
    }
  ],
  "asset": {
    "extras": {
      "author": "Dmary (https://sketchfab.com/Dmary)",
      "license": "CC-BY-4.0 (http://creativecommons.org/licenses/by/4.0/)",
      "source": "https://sketchfab.com/3d-models/canguro-580f30f0910948d8bd757109379f52d6",
      "title": "Canguro"
    },
    "generator": "Sketchfab-9.55.1",
    "version": "2.0"
  },
  "bufferViews": [
    {
      "buffer": 0,
      "byteLength": 10117572,
      "byteOffset": 0,
      "name": "floatBufferViews",
      "target": 34963
    },
    {
      "buffer": 0,
      "byteLength": 18398928,
      "byteOffset": 10117572,
      "byteStride": 12,
      "name": "floatBufferViews",
      "target": 34962
    },
    {
      "buffer": 0,
      "byteLength": 12265952,
      "byteOffset": 28516500,
      "byteStride": 16,
      "name": "floatBufferViews",
      "target": 34962
    }
  ],
  "buffers": [
    {
      "byteLength": 40782452,
      "uri": "scene.bin"
    }
  ],
  "materials": [
    {
      "doubleSided": true,
      "name": "material_0",
      "pbrMetallicRoughness": {
        "baseColorFactor": [
          1,
          1,
          1,
          1
        ],
        "metallicFactor": 0,
        "roughnessFactor": 0.59999999999999998
      }
    }
  ],
  "meshes": [
    {
      "primitives": [
        {
          "attributes": {
            "COLOR_0": 2,
            "NORMAL": 1,
            "POSITION": 0
          },
          "indices": 3,
          "material": 0,
          "mode": 4
        }
      ]
    },
    {
      "primitives": [
        {
          "attributes": {
            "COLOR_0": 6,
            "NORMAL": 5,
            "POSITION": 4
          },
          "indices": 7,
          "material": 0,
          "mode": 4
        }
      ]
    },
    {
      "primitives": [
        {
          "attributes": {
            "COLOR_0": 10,
            "NORMAL": 9,
            "POSITION": 8
          },
          "indices": 11,
          "material": 0,
          "mode": 4
        }
      ]
    },
    {
      "primitives": [
        {
          "attributes": {
            "COLOR_0": 14,
            "NORMAL": 13,
            "POSITION": 12
          },
          "indices": 15,
          "material": 0,
          "mode": 4
        }
      ]
    },
    {
      "primitives": [
        {
          "attributes": {
            "COLOR_0": 18,
            "NORMAL": 17,
            "POSITION": 16
          },
          "indices": 19,
          "material": 0,
          "mode": 4
        }
      ]
    },
    {
      "primitives": [
        {
          "attributes": {
            "COLOR_0": 22,
            "NORMAL": 21,
            "POSITION": 20
          },
          "indices": 23,
          "material": 0,
          "mode": 4
        }
      ]
    },
    {
      "primitives": [
        {
          "attributes": {
            "COLOR_0": 26,
            "NORMAL": 25,
            "POSITION": 24
          },
          "indices": 27,
          "material": 0,
          "mode": 4
        }
      ]
    },
    {
      "primitives": [
        {
          "attributes": {
            "COLOR_0": 30,
            "NORMAL": 29,
            "POSITION": 28
          },
          "indices": 31,
          "material": 0,
          "mode": 4
        }
      ]
    },
    {
      "primitives": [
        {
          "attributes": {
            "COLOR_0": 34,
            "NORMAL": 33,
            "POSITION": 32
          },
          "indices": 35,
          "material": 0,
          "mode": 4
        }
      ]
    },
    {
      "primitives": [
        {
          "attributes": {
            "COLOR_0": 38,
            "NORMAL": 37,
            "POSITION": 36
          },
          "indices": 39,
          "material": 0,
          "mode": 4
        }
      ]
    },
    {
      "primitives": [
        {
          "attributes": {
            "COLOR_0": 42,
            "NORMAL": 41,
            "POSITION": 40
          },
          "indices": 43,
          "material": 0,
          "mode": 4
        }
      ]
    },
    {
      "primitives": [
        {
          "attributes": {
            "COLOR_0": 46,
            "NORMAL": 45,
            "POSITION": 44
          },
          "indices": 47,
          "material": 0,
          "mode": 4
        }
      ]
    }
  ],
  "nodes": [
    {
      "children": [
        1
      ],
      "name": "RootNode (gltf orientation matrix)",
      "rotation": [
        -0.70710678118654746,
        -0,
        -0,
        0.70710678118654757
      ]
    },
    {
      "children": [
        2
      ],
      "name": "RootNode (model correction matrix)"
    },
    {
      "children": [
        3,
        4,
        5,
        6,
        7,
        8,
        9,
        10,
        11,
        12,
        13,
        14
      ],
      "name": "Canguro4.OBJ.cleaner.materialmerger.gles"
    },
    {
      "mesh": 0,
      "name": ""
    },
    {
      "mesh": 1,
      "name": ""
    },
    {
      "mesh": 2,
      "name": ""
    },
    {
      "mesh": 3,
      "name": ""
    },
    {
      "mesh": 4,
      "name": ""
    },
    {
      "mesh": 5,
      "name": ""
    },
    {
      "mesh": 6,
      "name": ""
    },
    {
      "mesh": 7,
      "name": ""
    },
    {
      "mesh": 8,
      "name": ""
    },
    {
      "mesh": 9,
      "name": ""
    },
    {
      "mesh": 10,
      "name": ""
    },
    {
      "mesh": 11,
      "name": ""
    }
  ],
  "scene": 0,
  "scenes": [
    {
      "name": "OSG_Scene",
      "nodes": [
        0
      ]
    }
  ]
}

