{
  "accessors": [
    {
      "bufferView": 2,
      "componentType": 5126,
      "count": 8014,
      "max": [
        11.360500335693359,
        -2.4987599849700928,
        8.922149658203125
      ],
      "min": [
        -7.8848800659179688,
        -20.631099700927734,
        -10.47350025177002
      ],
      "type": "VEC3"
    },
    {
      "bufferView": 2,
      "byteOffset": 96168,
      "componentType": 5126,
      "count": 8014,
      "max": [
        0.99977624416351318,
        0.99999874830245972,
        0.99995946884155273
      ],
      "min": [
        -0.99994933605194092,
        -0.99999624490737915,
        -0.99989688396453857
      ],
      "type": "VEC3"
    },
    {
      "bufferView": 3,
      "componentType": 5126,
      "count": 8014,
      "max": [
        0.99998170137405396,
        0.9811827540397644,
        0.99986249208450317,
        1
      ],
      "min": [
        -0.99992471933364868,
        -0.92931586503982544,
        -0.99984192848205566,
        -1
      ],
      "type": "VEC4"
    },
    {
      "bufferView": 3,
      "byteOffset": 128224,
      "componentType": 5126,
      "count": 8014,
      "max": [
        1,
        1,
        1,
        1
      ],
      "min": [
        1,
        1,
        1,
        1
      ],
      "type": "VEC4"
    },
    {
      "bufferView": 1,
      "componentType": 5126,
      "count": 8014,
      "max": [
        0.95509201288223267,
        0.9980279803276062
      ],
      "min": [
        0.0020293199922889471,
        0.2282630056142807
      ],
      "type": "VEC2"
    },
    {
      "bufferView": 0,
      "componentType": 5125,
      "count": 41598,
      "max": [
        8013
      ],
      "min": [
        0
      ],
      "type": "SCALAR"
    },
    {
      "bufferView": 2,
      "byteOffset": 192336,
      "componentType": 5126,
      "count": 1302,
      "max": [
        8.2680597305297852,
        -2.4987599849700928,
        5.747769832611084
      ],
      "min": [
        -4.6003999710083008,
        -2.498769998550415,
        -6.9971799850463867
      ],
      "type": "VEC3"
    },
    {
      "bufferView": 2,
      "byteOffset": 207960,
      "componentType": 5126,
      "count": 1302,
      "max": [
        0.99702662229537964,
        1,
        0.91322875022888184
      ],
      "min": [
        -0.97367513179779053,
        0.035657290369272232,
        -0.92479002475738525
      ],
      "type": "VEC3"
    },
    {
      "bufferView": 3,
      "byteOffset": 256448,
      "componentType": 5126,
      "count": 1302,
      "max": [
        1,
        1,
        1,
        1
      ],
      "min": [
        1,
        1,
        1,
        1
      ],
      "type": "VEC4"
    },
    {
      "bufferView": 1,
      "byteOffset": 64112,
      "componentType": 5126,
      "count": 1302,
      "max": [
        0,
        0
      ],
      "min": [
        0,
        0
      ],
      "type": "VEC2"
    },
    {
      "bufferView": 0,
      "byteOffset": 166392,
      "componentType": 5125,
      "count": 6768,
      "max": [
        1301
      ],
      "min": [
        0
      ],
      "type": "SCALAR"
    }
  ],
  "asset": {
    "extras": {
      "author": "Pixelio (https://sketchfab.com/pixelio)",
      "license": "CC-BY-4.0 (http://creativecommons.org/licenses/by/4.0/)",
      "source": "https://sketchfab.com/models/4786c095259146b393dcf903ca6c519e",
      "title": "Apple"
    },
    "generator": "Sketchfab-3.19.1",
    "version": "2.0"
  },
  "bufferViews": [
    {
      "buffer": 0,
      "byteLength": 193464,
      "byteOffset": 0,
      "name": "floatBufferViews",
      "target": 34963
    },
    {
      "buffer": 0,
      "byteLength": 74528,
      "byteOffset": 193464,
      "byteStride": 8,
      "name": "floatBufferViews",
      "target": 34962
    },
    {
      "buffer": 0,
      "byteLength": 223584,
      "byteOffset": 267992,
      "byteStride": 12,
      "name": "floatBufferViews",
      "target": 34962
    },
    {
      "buffer": 0,
      "byteLength": 277280,
      "byteOffset": 491576,
      "byteStride": 16,
      "name": "floatBufferViews",
      "target": 34962
    }
  ],
  "buffers": [
    {
      "byteLength": 768856,
      "uri": "scene.bin"
    }
  ],
  "extensionsRequired": [
    "KHR_materials_pbrSpecularGlossiness"
  ],
  "extensionsUsed": [
    "KHR_materials_pbrSpecularGlossiness"
  ],
  "images": [
    {
      "uri": "textures/Texture_0_diffuse.jpeg"
    },
    {
      "uri": "textures/Texture_0_specularGlossiness.jpeg"
    }
  ],
  "materials": [
    {
      "doubleSided": true,
      "emissiveFactor": [
        0,
        0,
        0
      ],
      "extensions": {
        "KHR_materials_pbrSpecularGlossiness": {
          "diffuseFactor": [
            0.73999999999999999,
            0.73999999999999999,
            0.73999999999999999,
            1
          ],
          "diffuseTexture": {
            "index": 0,
            "texCoord": 0
          },
          "glossinessFactor": 0.93999999999999995,
          "specularFactor": [
            1,
            1,
            1
          ],
          "specularGlossinessTexture": {
            "index": 1,
            "texCoord": 0
          }
        }
      },
      "name": "Texture_0"
    }
  ],
  "meshes": [
    {
      "primitives": [
        {
          "attributes": {
            "COLOR_0": 3,
            "NORMAL": 1,
            "POSITION": 0,
            "TANGENT": 2,
            "TEXCOORD_0": 4
          },
          "indices": 5,
          "material": 0,
          "mode": 4
        }
      ]
    },
    {
      "primitives": [
        {
          "attributes": {
            "COLOR_0": 8,
            "NORMAL": 7,
            "POSITION": 6,
            "TEXCOORD_0": 9
          },
          "indices": 10,
          "material": 0,
          "mode": 4
        }
      ]
    }
  ],
  "nodes": [
    {
      "children": [
        1
      ],
      "name": "RootNode (gltf orientation matrix)",
      "rotation": [
        -0.70710678118654746,
        -0,
        -0,
        0.70710678118654757
      ]
    },
    {
      "children": [
        2
      ],
      "matrix": [
        1,
        0,
        0,
        0,
        0,
        0,
        -1,
        0,
        0,
        1,
        0,
        0,
        0,
        -9.926426887512207,
        -11.477777481079102,
        1
      ],
      "name": "RootNode (model correction matrix)"
    },
    {
      "children": [
        3,
        4
      ],
      "name": "apple2.obj.cleaner"
    },
    {
      "mesh": 0,
      "name": ""
    },
    {
      "mesh": 1,
      "name": ""
    }
  ],
  "samplers": [
    {
      "magFilter": 9729,
      "minFilter": 9987,
      "wrapS": 10497,
      "wrapT": 10497
    }
  ],
  "scene": 0,
  "scenes": [
    {
      "name": "OSG_Scene",
      "nodes": [
        0
      ]
    }
  ],
  "textures": [
    {
      "sampler": 0,
      "source": 0
    },
    {
      "sampler": 0,
      "source": 1
    }
  ]
}

