{
  "accessors": [
    {
      "bufferView": 0,
      "byteOffset": 0,
      "componentType": 5123,
      "count": 327258,
      "max": [65534],
      "min": [0],
      "name": "buffer-0-group-0-mesh-0-indices",
      "type": "SCALAR"
    },
    {
      "bufferView": 2,
      "byteOffset": 0,
      "componentType": 5126,
      "count": 65535,
      "max": [61.80669021606445, 0, 54.67324066162109],
      "min": [-61.80669021606445, -73.20893859863281, -54.67324066162109],
      "name": "buffer-0-group-0-mesh-0-position",
      "type": "VEC3"
    },
    {
      "bufferView": 2,
      "byteOffset": 786420,
      "componentType": 5126,
      "count": 65535,
      "max": [0.999937117099762, 0.9999006390571594, 0.9999770522117615],
      "min": [-0.9999915361404419, -0.9999997615814209, -0.9998385310173035],
      "name": "buffer-0-group-0-mesh-0-normal",
      "type": "VEC3"
    },
    {
      "bufferView": 1,
      "byteOffset": 0,
      "componentType": 5126,
      "count": 65535,
      "max": [0.7412800192832947, 0],
      "min": [0, -0.9985100030899048],
      "name": "buffer-0-group-0-mesh-0-texcoord",
      "type": "VEC2"
    },
    {
      "bufferView": 0,
      "byteOffset": 654516,
      "componentType": 5123,
      "count": 213366,
      "max": [38778],
      "min": [0],
      "name": "buffer-0-group-0-mesh-1-indices",
      "type": "SCALAR"
    },
    {
      "bufferView": 2,
      "byteOffset": 1572840,
      "componentType": 5126,
      "count": 38779,
      "max": [27.66768074035645, 17.71336936950684, 50.76581954956055],
      "min": [-59.49700927734375, -62.55353927612305, -41.26034927368164],
      "name": "buffer-0-group-0-mesh-1-position",
      "type": "VEC3"
    },
    {
      "bufferView": 2,
      "byteOffset": 2038188,
      "componentType": 5126,
      "count": 38779,
      "max": [0.9999844431877136, 0.9999855756759644, 0.9998506903648376],
      "min": [-0.999996542930603, -0.999960720539093, -0.9998701810836792],
      "name": "buffer-0-group-0-mesh-1-normal",
      "type": "VEC3"
    },
    {
      "bufferView": 1,
      "byteOffset": 524280,
      "componentType": 5126,
      "count": 38779,
      "max": [0.7375800013542175, 0],
      "min": [0, -0.9985200166702271],
      "name": "buffer-0-group-0-mesh-1-texcoord",
      "type": "VEC2"
    }
  ],
  "asset": {
    "generator": "Obj2GltfConverter",
    "version": "2.0"
  },
  "bufferViews": [
    {
      "buffer": 0,
      "byteLength": 1081248,
      "byteOffset": 0,
      "byteStride": 0,
      "name": "buffer-0-bufferview-ushort",
      "target": 34963
    },
    {
      "buffer": 0,
      "byteLength": 834512,
      "byteOffset": 1081248,
      "byteStride": 8,
      "name": "buffer-0-bufferview-vec2",
      "target": 34962
    },
    {
      "buffer": 0,
      "byteLength": 2503536,
      "byteOffset": 1915764,
      "byteStride": 12,
      "name": "buffer-0-bufferview-vec3",
      "target": 34962
    },
    {
      "buffer": 0,
      "byteLength": 1,
      "byteOffset": 0,
      "name": "buffer-0-bufferview-vec4"
    }
  ],
  "buffers": [
    {
      "byteLength": 4419300,
      "name": "buffer-0",
      "uri": "model_Snake_20171107_154750887.bin"
    }
  ],
  "images": [
    {
      "mimeType": "image/jpeg",
      "name": "material0-image",
      "uri": "texture.jpg"
    }
  ],
  "materials": [
    {
      "alphaMode": "OPAQUE",
      "doubleSided": true,
      "name": "material0",
      "pbrMetallicRoughness": {
        "baseColorFactor": [1, 1, 1, 1],
        "baseColorTexture": {
          "index": 0,
          "texCoord": 0
        },
        "metallicFactor": 0,
        "roughnessFactor": 0.9699476628648295
      }
    }
  ],
  "meshes": [
    {
      "name": "buffer-0-mesh-0",
      "primitives": [
        {
          "attributes": {
            "NORMAL": 2,
            "POSITION": 1,
            "TEXCOORD_0": 3
          },
          "indices": 0,
          "material": 0,
          "mode": 4
        },
        {
          "attributes": {
            "NORMAL": 6,
            "POSITION": 5,
            "TEXCOORD_0": 7
          },
          "indices": 4,
          "material": 0,
          "mode": 4
        }
      ]
    }
  ],
  "nodes": [
    {
      "mesh": 0,
      "name": "node-0"
    }
  ],
  "samplers": [
    {
      "name": "material0-sampler",
      "wrapS": 10497,
      "wrapT": 10497
    }
  ],
  "scenes": [
    {
      "name": "scene-0",
      "nodes": [0]
    }
  ],
  "textures": [
    {
      "name": "material0-texture",
      "sampler": 0,
      "source": 0
    }
  ]
}
